<?xml version="1.0" encoding="UTF-8"?>
<svg width="87px" height="28px" viewBox="0 0 87 28" version="1.1" xmlns="http://www.w3.org/2000/svg" xmlns:xlink="http://www.w3.org/1999/xlink">
    <g id="03-Atome-/-Icons-/-Navi-/-Logo" stroke="none" stroke-width="1" fill="none" fill-rule="evenodd">
        <path d="M84.2577398,8.57602484 L71.0536371,8.57602484 L71.0536371,11.3201157 L84.2577398,11.3201157 L84.2577398,15.2199252 L84.2577398,16.700628 L71.0536371,16.6996402 L71.0536371,25.2786284 L58.8330413,25.2786284 L58.8330413,11.0662527 L58.8330413,10.20786 C58.8330413,6.075919 62.2130365,2.72729838 66.3812322,2.72729838 L67.7414012,2.71149369 L68.5804213,2.71149369 L84.2577398,2.71149369 L84.2577398,8.57602484 Z M30.4339072,12.5568334 L30.4339072,15.2920341 L30.4339072,18.6357158 C29.1972992,16.662104 27.4265883,15.0510125 25.3210666,14.0029634 C27.4265883,12.9539265 29.1972992,11.3438228 30.4339072,9.37021096 L30.4339072,12.5568334 Z M16.8312201,25.2786284 L16.8312201,16.9940027 L14.1049033,16.9940027 L14.1049033,25.2786284 L2.73628148,25.2786284 L2.73628148,2.71346927 L14.1049033,2.71346927 L14.1049033,11.0069851 L16.8491564,11.0069851 L16.8441741,2.7253228 L29.6496925,2.73618853 C29.6496925,8.11472518 25.3399993,12.496578 19.9561214,12.6714175 L19.6203141,12.6714175 L19.6203141,15.3443872 C25.1586434,15.3443872 29.6496925,19.788471 29.6496925,25.2786284 L16.8312201,25.2786284 Z M68.0712298,0 L66.3812322,0 C62.5637907,0 59.2445796,2.11289071 57.5505962,5.22147746 L57.541628,5.18690468 C56.2113528,2.13560996 53.1492286,0 49.5818988,0 L48.8435213,0 L0,0 L0,27.9960488 L43.1397794,28 L43.1407759,19.257038 L43.1427688,17.2103295 L43.1457582,8.57701263 L46.6204171,8.57701263 L46.6204171,28 L73.7988867,28 L73.7988867,19.4259508 L87,19.424963 L87,0 L68.0712298,0 Z" id="Logo" fill="#0095D8" fill-rule="nonzero"></path>
    </g>
</svg>